<?xml version="1.0" encoding="UTF-8"?>
<svg width="700pt" height="700pt" version="1.1" viewBox="0 0 700 700" xmlns="http://www.w3.org/2000/svg">
 <g>
  <path d="m550.55 26.25h-401.1c-13.922 0-27.277 5.5312-37.121 15.375-9.8477 9.8477-15.379 23.199-15.379 37.125v401.8c0 13.922 5.5312 27.277 15.379 37.121 9.8438 9.8477 23.199 15.379 37.121 15.379h401.1c13.922 0 27.277-5.5312 37.121-15.379 9.8477-9.8438 15.379-23.199 15.379-37.121v-401.1c0.1875-14.043-5.2617-27.578-15.129-37.574-9.8633-10-23.324-15.625-37.371-15.625zm-401.1 17.5h401.1c9.2812 0 18.184 3.6875 24.746 10.25 6.5664 6.5664 10.254 15.469 10.254 24.75v52.5h-471.8v-52.5c0-9.4062 3.7812-18.414 10.496-25 6.7188-6.582 15.801-10.188 25.203-10zm401.1 472.5h-401.1c-9.2812 0-18.184-3.6875-24.746-10.25-6.5664-6.5664-10.254-15.469-10.254-24.75v-332.5h472.5v332.5c0.007812 9.5312-3.8711 18.652-10.742 25.258-6.8672 6.6055-16.133 10.125-25.656 9.7422z"/>
  <path d="m542.5 87.5c0 9.6641-7.8359 17.5-17.5 17.5s-17.5-7.8359-17.5-17.5 7.8359-17.5 17.5-17.5 17.5 7.8359 17.5 17.5"/>
  <path d="m472.5 87.5c0 9.6641-7.8359 17.5-17.5 17.5s-17.5-7.8359-17.5-17.5 7.8359-17.5 17.5-17.5 17.5 7.8359 17.5 17.5"/>
  <path d="m402.5 87.5c0 9.6641-7.8359 17.5-17.5 17.5s-17.5-7.8359-17.5-17.5 7.8359-17.5 17.5-17.5 17.5 7.8359 17.5 17.5"/>
 </g>
</svg>
