<svg width="933" height="720" viewBox="0 0 933 720" fill="none" xmlns="http://www.w3.org/2000/svg">
<path d="M164.232 148.715C177.399 138.173 198.75 138.173 211.916 148.715L307.286 225.068C320.453 235.609 320.453 252.703 307.286 263.244L211.916 339.597C198.75 350.144 177.399 350.144 164.232 339.597C151.066 329.056 151.066 311.968 164.232 301.421L235.76 244.156L164.232 186.89C151.066 176.349 151.066 159.256 164.232 148.715Z" fill="black"/>
<path d="M294.708 383.495C276.1 383.495 261.022 395.684 261.022 410.716C261.022 425.748 276.099 437.938 294.708 437.938H496.812C515.414 437.938 530.491 425.748 530.491 410.716C530.491 395.684 515.413 383.495 496.812 383.495H294.708Z" fill="black"/>
<path fill-rule="evenodd" clip-rule="evenodd" d="M773.507 4C850.675 4 913.235 55.4101 913.235 118.831V578.169C913.235 641.585 850.675 693 773.507 693H158.729C81.5602 693 19 641.585 19 578.169V118.831C19 55.4101 81.5602 4 158.729 4L773.507 4ZM857.341 118.831C857.341 80.7811 819.81 49.9314 773.507 49.9314H158.729C112.425 49.9314 74.8938 80.7811 74.8938 118.831V578.169C74.8938 616.219 112.425 647.069 158.729 647.069H773.507C819.81 647.069 857.341 616.219 857.341 578.169V118.831Z" fill="black"/>
</svg>
